# xmcd
#
# Track frame offsets: 
#        150
#        17110
#        36460
#        54910
#        73290
#        87090
#        106750
#        127360
#        147610
#        167865
#        187135
#        203412
#
# Disc length: 2845 seconds
#
# Revision: 5
# Processed by: cddbd v1.5.2PL0 Copyright (c) Steve Scherf et al.
# Submitted via: ExactAudioCopyFreeDBPlugin 1.0
#
DISCID=b50b1b0c
DTITLE=Anne Murray - What a Wonderful World
DYEAR=1999
DGENRE=Christian
TTITLE0=Amazing Grace
TTITLE1=Just a Closer Walk With Thee and Take My Hand Lord Jesus
TTITLE2=Softly and Tenderly
TTITLE3=The Old Rugged Cross
TTITLE4=I Can See Clearly Now
TTITLE5=In the Garden
TTITLE6=You've Got a Friend
TTITLE7=Whispering Hope
TTITLE8=Bridge Over Troubled Water
TTITLE9=Jacob's Ladder
TTITLE10=Nearer My God to Thee
TTITLE11=The Lord's Prayer
EXTD=
EXTT0=
EXTT1=
EXTT2=
EXTT3=
EXTT4=
EXTT5=
EXTT6=
EXTT7=
EXTT8=
EXTT9=
EXTT10=
EXTT11=
PLAYORDER=
